<?xml version="1.0" standalone="no"?><!DOCTYPE svg PUBLIC "-//W3C//DTD SVG 1.1//EN" "http://www.w3.org/Graphics/SVG/1.1/DTD/svg11.dtd"><svg t="1598496212168" class="icon" viewBox="0 0 1024 1024" version="1.1" xmlns="http://www.w3.org/2000/svg" p-id="4782" width="32" height="32" xmlns:xlink="http://www.w3.org/1999/xlink"><defs><style type="text/css"></style></defs><path d="M816.39 80.44c16.8-8.11 36.15-10.61 54.51-7.43 16.48 2.81 32.12 10.37 44.55 21.55 19.04 16.82 30.35 42.03 30.07 67.45 0.24 9.06-1.7 17.96-3.56 26.77a2354904.7 2354904.7 0 0 0-129.27 653.1c-3.69 16.9-5.41 34.63-13.67 50.12-8.84 17.33-23.53 31.55-41.05 39.98-24.88 12.06-55.43 11.84-80.03-0.86-8.06-4.04-15.26-9.52-22.98-14.11-22.9-14.44-45.75-28.93-68.64-43.37-13.78-8.56-27.28-17.59-41.25-25.81-34.13 28.59-68.08 57.41-102.12 86.1-5.69 4.68-11.01 9.97-17.66 13.31-11.53 6.16-25.78 7.38-37.99 2.52-17.33-6.64-28.71-24.54-29.53-42.78-0.18-43.65 0.25-87.32-0.26-130.98-0.01-32 0.02-64-0.02-96-0.35-6.66 0.92-13.81 5.72-18.76 53.61-56.4 107.23-112.79 160.87-169.17 20.22-21.45 40.79-42.6 60.82-64.21-9.53 6.66-18.33 14.37-27.56 21.46-90.93 72.1-181.85 144.2-272.78 216.29-7.07 5.77-17.79 6.25-25.38 1.21-42.91-27.1-85.79-54.26-128.71-81.36-5.85-3.78-12.03-7.09-17.46-11.48-13.99-10.94-24.6-26.11-30.11-43-6.48-19.84-5.83-41.93 1.87-61.33 7.37-18.84 21.42-34.88 38.9-44.99 6.14-3.8 13.06-6.03 19.4-9.45C367.53 303.66 591.93 192 816.39 80.44m29.5 35.43c-8.59 1.68-16.08 6.44-23.89 10.13-211.67 105.31-423.36 210.57-635.07 315.8-12.57 6.1-24.82 12.85-37.68 18.34-8.28 3.85-15.38 10.15-20.32 17.82-6.8 10.77-8.97 24.37-5.7 36.7 3.17 12.64 12.01 23.49 23.34 29.78 31.95 19.99 63.74 40.25 95.62 60.36 9.26 5.63 18.16 11.9 27.62 17.18 145.05-115.01 290.1-230 435.12-345.04 10.85-8.38 21.62-17.36 34.48-22.51 8.62-3.58 19.44-2.83 26.53 3.63 6.05 5.17 9.03 13.58 7.66 21.42-1.16 8.38-6.06 15.54-10.89 22.24-10.68 14.46-23.72 26.92-35.94 40.05C619.72 454.38 512.67 567 405.58 679.57c-1.82 2.28-5.16 4.07-4.84 7.39 0.01 23.35 0 46.7 0 70.04-0.15 21.34 0.45 42.66 0.26 64-0.01 27.67 0.02 55.34-0.02 83.01-0.07 2.06 0.87 3.93 2.01 5.6 3.28-0.82 5.56-3.46 8.1-5.49 38.1-32.25 76.3-64.39 114.42-96.62 2.71-2.27 5.34-4.74 8.56-6.28 6.73-3.14 15.02-2.58 21.23 1.54 43.5 27.48 87 54.95 130.48 82.48 6.24 3.86 12.27 8.43 19.47 10.38 15 4.53 32.23 1.07 44.03-9.33 8.62-7.26 14.16-17.67 16.14-28.71 45.49-229.57 90.85-459.17 136.36-688.73 2.74-16.94-4.86-34.87-18.77-44.86-10.5-7.81-24.33-10.75-37.12-8.12z" fill="#0C00BF" p-id="4783"></path><path d="M745.3 581.31c5.4-0.94 11.19-0.29 16 2.47 8.68 4.64 13.6 15.28 11.47 24.91-8.99 40.24-18.06 80.47-27.07 120.71-0.71 3.06-1.27 6.17-2.35 9.14-2.57 6.83-8.65 12.17-15.71 13.95-7.98 2.16-17.07-0.34-22.73-6.4-5.33-5.46-7.57-13.63-5.94-21.07 9.49-42.15 18.89-84.34 28.41-126.49 1.94-8.62 9.29-15.54 17.92-17.22z" fill="#FC4E7F" p-id="4784"></path></svg>