<?xml version="1.0" standalone="no"?><!DOCTYPE svg PUBLIC "-//W3C//DTD SVG 1.1//EN" "http://www.w3.org/Graphics/SVG/1.1/DTD/svg11.dtd"><svg t="1598496644071" class="icon" viewBox="0 0 1024 1024" version="1.1" xmlns="http://www.w3.org/2000/svg" p-id="16579" width="32" height="32" xmlns:xlink="http://www.w3.org/1999/xlink"><defs><style type="text/css"></style></defs><path d="M401.237333 716.8h323.618134a102.4 102.4 0 1 0 204.8 0h34.781866a34.133333 34.133333 0 0 0 34.133334-34.133333V467.7632a68.266667 68.266667 0 0 0-15.0528-42.769067l-101.632-126.429866A68.3008 68.3008 0 0 0 828.654933 273.066667H691.370667a34.133333 34.133333 0 0 0-34.133334 34.133333v341.333333h-68.266666V170.666667a68.266667 68.266667 0 0 0-68.266667-68.266667h-443.733333a68.266667 68.266667 0 0 0-68.266667 68.266667v477.866666a68.266667 68.266667 0 0 0 68.266667 68.266667h119.466666a102.4 102.4 0 1 0 204.8 0z m426.666667 34.133333a34.133333 34.133333 0 1 1 0-68.266666 34.133333 34.133333 0 0 1 0 68.266666z m-78.779733-375.466666a17.066667 17.066667 0 0 1 17.066666-17.066667h55.5008a17.066667 17.066667 0 0 1 13.1072 6.144l67.908267 81.527467c2.56 3.072 3.959467 6.929067 3.959467 10.922666V477.866667a17.066667 17.066667 0 0 1-17.066667 17.066666h-123.409067a17.066667 17.066667 0 0 1-17.066666-17.066666v-102.4zM298.837333 750.933333a34.133333 34.133333 0 1 1 0-68.266666 34.133333 34.133333 0 0 1 0 68.266666z" fill="#3f51b5" p-id="16580"></path><path d="M981.162667 819.2h-921.6c-18.773333 0-34.133333 15.36-34.133334 34.133333v34.133334c0 18.773333 15.36 34.133333 34.133334 34.133333h921.6c18.773333 0 34.133333-15.36 34.133333-34.133333v-34.133334c0-18.773333-15.36-34.133333-34.133333-34.133333z" fill="#3f51b5" p-id="16581"></path></svg>