<?xml version="1.0" standalone="no"?><!DOCTYPE svg PUBLIC "-//W3C//DTD SVG 1.1//EN" "http://www.w3.org/Graphics/SVG/1.1/DTD/svg11.dtd"><svg t="1597916274805" class="icon" viewBox="0 0 1024 1024" version="1.1" xmlns="http://www.w3.org/2000/svg" p-id="21222" width="32" height="32" xmlns:xlink="http://www.w3.org/1999/xlink"><defs><style type="text/css"></style></defs><path d="M759.6 444.4c3.2 1.2 6.4 2.8 9.6 4V239.6L673.6 160 355.6 273.6v28.4l288.8-92.8v216.8c6.8-0.4 13.2-0.8 20-0.8 33.2 0 65.2 6.4 95.2 19.2z m0 0M252 639.2l151.6-28.8v-73.2L252 574.8v64.4z m0 0M252 859.6h151.6v-77.2L252 793.2v66.4z m0 0M252 748.8l151.6-14v-73.2L252 686v62.8z m0 0M252 527.2l151.6-40v-76L252 460v67.2z m0 0M447.2 776.8v82h70c-9.2-6.8-17.6-14-25.6-22-18-18-32.8-38-44.4-60z m0 0" fill="#3F51B5" p-id="21223"></path><path d="M569.6 444.4l2-0.8V337.6L486 288 164 398.8v462.4h42.4v-440l240.8-76V556c11.6-22 26.4-42.4 44.4-60 22.4-22.4 48.8-39.6 78-51.6z m0 0" fill="#3F51B5" p-id="21224"></path><path d="M662.8 472c-24.4 0-48 4.4-69.2 12.8-73.2 28-125.6 99.2-125.6 182.4 0 107.6 87.6 195.2 195.2 195.2 62 0 117.2-28.8 152.8-74 26.4-33.2 42-75.2 42-120.8-0.4-108-88-195.6-195.2-195.6z m103.2 218.4h-80.4v80.4c0 11.2-9.2 20.8-20.8 20.8-11.2 0-20.8-9.2-20.8-20.8v-80.4h-80.4c-11.2 0-20.8-9.2-20.8-20.8 0-11.2 9.2-20.8 20.8-20.8H644v-80.4c0-11.2 9.2-20.8 20.8-20.8 11.2 0 20.8 9.2 20.8 20.8v80.4h80.4c11.2 0 20.8 9.2 20.8 20.8 0 11.6-9.2 20.8-20.8 20.8z m0 0" fill="#3F51B5" p-id="21225"></path></svg>