<?xml version="1.0" standalone="no"?><!DOCTYPE svg PUBLIC "-//W3C//DTD SVG 1.1//EN" "http://www.w3.org/Graphics/SVG/1.1/DTD/svg11.dtd"><svg t="1598496511075" class="icon" viewBox="0 0 1024 1024" version="1.1" xmlns="http://www.w3.org/2000/svg" p-id="13156" width="32" height="32" xmlns:xlink="http://www.w3.org/1999/xlink"><defs><style type="text/css"></style></defs><path d="M62.801836 238.252289c37.543058 12.571317 74.732052 26.340925 112.763227 37.231973 21.36868 6.104021 42.60433 0.615007 61.886489-11.601222 39.245839-24.845874 79.763648-47.324842 123.625622-63.136969 37.647435-13.58439 73.370031-10.18906 106.814748 12.326746 4.202719 2.834558 7.813966 6.607488 12.459776 10.603499-18.911722 10.490935-36.876885 20.074198-54.458309 30.351262-21.161972 12.364609-42.322921 24.765033-62.863746 38.09155-37.558407 24.431435-52.148707 66.570161-37.705763 106.629529 13.452383 37.357839 54.072523 64.35061 89.88517 58.541301 11.896958-1.960655 23.735587-6.067182 34.879392-10.906397 28.619828-12.407588 56.781214-25.800619 85.163635-38.772049 27.466562-12.555967 49.278333-8.508791 70.853721 13.015432 55.168484 55.06513 110.292965 110.166075 165.519778 165.200506 16.678868 16.632819 17.684778 41.273009 2.101871 57.241702-15.83464 16.217357-40.472783 15.374152-57.877175-1.850138-17.816784-17.683754-35.588543-35.426861-53.776787-52.725852-3.625574-3.507894-7.546883-11.17348-13.895475-5.358031-1.346671 1.272993 2.012843 10.033517 5.222955 13.527085 16.678868 18.364253 33.932834 36.180014 51.128471 54.0715 20.584827 21.398356 16.294105 53.407374-8.892531 65.587787-15.997346 7.753591-33.859155 3.536546-47.798633-10.419304-21.901823-21.842471-44.055378-43.49256-66.251913-65.022922-2.857071-2.78237-6.792707-4.542456-11.291161-7.488555-1.940189 9.931187 3.535523 14.605649 7.753591 19.209504 16.426111 17.801435 33.194006 35.279504 49.944506 52.767807 7.547907 7.830339 12.726859 16.545838 13.023618 27.747971 0.413416 16.899902-8.435113 31.16479-23.500227 37.617759-15.33015 6.571672-32.142048 2.78237-44.099381-9.558703-18.955724-19.417235-38.0762-38.71372-57.196677-57.995879-3.077082-3.078105-6.317892-6.15621-9.988492-8.420787-2.026146-1.27197-5.046946-0.842181-7.620561-1.182942 0.029676 2.648316-0.754177 5.726421 0.295735 7.872295 1.642406 3.328815 4.351098 6.230911 6.955412 8.969279 14.858406 15.626909 30.188556 30.884404 44.765553 46.835701 12.800537 13.941524 13.525038 34.450626 2.737344 49.15963-13.349029 18.189268-39.304168 21.518083-56.440453 6.644327-7.665587-6.688329-14.487969-14.396895-21.310352-21.989827-1.390673-1.554402-1.568728-4.750187-1.346671-7.05672 4.099365-42.797735-17.594727-78.683037-56.92857-94.739734-3.166109-1.257643-6.378268-4.913916-7.531534-8.212032-9.218966-26.282596-26.207895-44.971238-52.016701-55.834656-3.167133-1.345648-6.333242-4.942569-7.606235-8.182356-9.442046-24.50716-25.927509-41.776476-50.196239-51.927673-3.225461-1.346671-6.718005-4.764514-7.872295-8.006348-16.649192-46.422286-63.307861-66.636676-110.218264-55.464219-32.94125 7.828292-55.790654 27.881001-68.841901 59.133795-0.325411 0.799202-0.7552 1.555425-1.214664 2.309602-0.310062 0.472767-0.73985 0.88823-1.568728 1.775436-15.656585-5.431709-31.579229-10.9504-47.473221-16.500812C62.801836 444.9847 62.801836 341.611332 62.801836 238.252289L62.801836 238.252289zM959.892425 539.584242c-31.298843 5.695722-62.419631 12.089339-93.836155 16.720823-22.034852 3.285836-41.10928-4.246721-57.196677-20.214391-60.317761-59.829644-120.960932-119.319549-181.279716-179.12668-18.36323-18.201547-39.925315-22.530133-62.581314-12.023848-34.583656 16.063861-68.235081 34.236755-102.256942 51.572586-10.388605 5.282307-20.62883 10.869558-31.046087 16.115026-25.275663 12.71151-55.035454 3.188622-68.325132-21.760606-12.977569-24.320918-4.217045-54.502311 20.082384-68.213591 71.091128-40.140209 142.241608-80.162738 213.377762-120.222105 0.251733-0.148379 0.502443-0.273223 0.7552-0.444115 30.40959-19.85214 58.896388-16.018835 85.889159 6.843872 30.277584 25.668613 60.688197 51.194986 90.89108 76.951603 14.827707 12.660344 31.579229 16.744359 50.447972 12.630668 42.455951-9.241478 84.868923-18.564821 127.295198-27.79095 2.51631-0.547469 5.16565-0.569982 7.78429-0.843204C959.892425 359.723851 959.892425 449.668373 959.892425 539.584242L959.892425 539.584242zM329.482595 763.572666c-8.893554 2.352581-16.366759 4.852518-23.988344 6.228865-12.297071 2.279926-24.594141 2.648316-34.894741-6.27389-11.408841-9.901511-15.656585-22.153556-10.920724-36.937261 2.278903-7.074116 4.690836-14.148231 7.457856-22.494317-9.100262 2.323928-16.84055 4.559852-24.683169 6.15621-28.175713 5.802146-49.752124-18.49626-40.695864-45.695738 2.116197-6.363941 4.440126-12.592806 7.251148-20.599154-5.53404 1.38965-9.94449 2.146896-14.087856 3.611248-39.927361 13.998829-59.978023-19.194154-53.274344-48.50983 6.628978-29.01994 30.720675-54.162574 58.335616-58.112536 32.082696-4.602831 58.216913 21.797445 53.096289 53.642734-0.355087 2.279926-0.73985 4.559852-1.316995 8.140401 17.787108-2.486634 34.302247-1.093914 47.399543 11.957333 13.346983 13.304004 14.058181 29.863145 11.054777 48.050366 18.955724-1.762133 36.433794-0.458441 49.353035 14.826684 12.682857 15.035438 13.125949 32.231075 7.739265 50.67003 6.970762-0.664126 12.979616-1.893116 18.956747-1.730411 31.846312 0.843204 52.41579 29.655414 43.980677 61.279668-8.967232 33.621748-56.559157 57.921177-88.922239 45.373397-18.839067-7.297197-27.747971-25.187659-21.650089-44.602847C322.201771 780.545222 325.797669 772.879636 329.482595 763.572666L329.482595 763.572666zM329.482595 763.572666" p-id="13157" fill="#3f51b5"></path></svg>